HIERARCHY
ROOT hip
{
  OFFSET 0 0 0
  CHANNELS 6 Xposition Yposition Zposition Zrotation Yrotation Xrotation
  JOINT abdomen
  {
    OFFSET 0 20.6881 -0.73152
    CHANNELS 3 Zrotation Xrotation Yrotation
    JOINT chest
    {
      OFFSET 0 11.7043 -0.48768
      CHANNELS 3 Zrotation Xrotation Yrotation
      JOINT neck
      {
        OFFSET 0 22.1894 -2.19456
        CHANNELS 3 Zrotation Xrotation Yrotation
        JOINT head
        {
          OFFSET -0.24384 7.07133 1.2192
          CHANNELS 3 Zrotation Xrotation Yrotation
          JOINT leftEye
          {
            OFFSET 4.14528 8.04674 8.04672
            CHANNELS 3 Zrotation Xrotation Yrotation
            End Site
            {
              OFFSET 1 0 0
            }
          }
          JOINT rightEye
          {
            OFFSET -3.6576 8.04674 8.04672
            CHANNELS 3 Zrotation Xrotation Yrotation
            End Site
            {
              OFFSET 1 0 0
            }
          }
        }
      }
      JOINT rCollar
      {
        OFFSET -2.68224 19.2634 -4.8768
        CHANNELS 3 Zrotation Xrotation Yrotation
        JOINT rShldr
        {
          OFFSET -8.77824 -1.95073 1.46304
          CHANNELS 3 Zrotation Xrotation Yrotation
          JOINT rForeArm
          {
            OFFSET -28.1742 -1.7115 0.48768
            CHANNELS 3 Zrotation Xrotation Yrotation
            JOINT rHand
            {
              OFFSET -22.5879 0.773209 7.07136
              CHANNELS 3 Zrotation Xrotation Yrotation
              JOINT rThumb1
              {
                OFFSET -1.2192 -0.487915 3.41376
                CHANNELS 3 Zrotation Xrotation Yrotation
                JOINT rThumb2
                {
                  OFFSET -3.37035 -0.52449 3.41376
                  CHANNELS 3 Zrotation Xrotation Yrotation
                  End Site
                  {
                    OFFSET -1.78271 -1.18214 1.43049
                  }
                }
              }
              JOINT rIndex1
              {
                OFFSET -7.75947 0.938293 5.60832
                CHANNELS 3 Zrotation Xrotation Yrotation
                JOINT rIndex2
                {
                  OFFSET -2.54057 -0.884171 1.56538
                  CHANNELS 3 Zrotation Xrotation Yrotation
                  End Site
                  {
                    OFFSET -1.62519 -0.234802 1.16502
                  }
                }
              }
              JOINT rMid1
              {
                OFFSET -8.24714 1.18213 3.41376
                CHANNELS 3 Zrotation Xrotation Yrotation
                JOINT rMid2
                {
                  OFFSET -3.10165 -0.590103 1.0647
                  CHANNELS 3 Zrotation Xrotation Yrotation
                  End Site
                  {
                    OFFSET -2.48547 -0.328903 0.83742
                  }
                }
              }
              JOINT rRing1
              {
                OFFSET -8.82822 0.546677 1.51678
                CHANNELS 3 Zrotation Xrotation Yrotation
                JOINT rRing2
                {
                  OFFSET -2.60934 -0.819778 -0.0198488
                  CHANNELS 3 Zrotation Xrotation Yrotation
                  End Site
                  {
                    OFFSET -2.33842 -0.294052 0.168128
                  }
                }
              }
              JOINT rPinky1
              {
                OFFSET -8.27202 -0.0477905 -0.4584
                CHANNELS 3 Zrotation Xrotation Yrotation
                JOINT rPinky2
                {
                  OFFSET -1.82734 -0.647385 -0.700984
                  CHANNELS 3 Zrotation Xrotation Yrotation
                  End Site
                  {
                    OFFSET -1.69225 -0.51767 -0.607171
                  }
                }
              }
            }
          }
        }
      }
      JOINT lCollar
      {
        OFFSET 2.68224 19.2634 -4.8768
        CHANNELS 3 Zrotation Xrotation Yrotation
        JOINT lShldr
        {
          OFFSET 8.77824 -1.95073 1.46304
          CHANNELS 3 Zrotation Xrotation Yrotation
          JOINT lForeArm
          {
            OFFSET 28.1742 -1.7115 0.48768
            CHANNELS 3 Zrotation Xrotation Yrotation
            JOINT lHand
            {
              OFFSET 22.5879 0.773209 7.07136
              CHANNELS 3 Zrotation Xrotation Yrotation
              JOINT lThumb1
              {
                OFFSET 1.2192 -0.487915 3.41376
                CHANNELS 3 Zrotation Xrotation Yrotation
                JOINT lThumb2
                {
                  OFFSET 3.37035 -0.52449 3.41376
                  CHANNELS 3 Zrotation Xrotation Yrotation
                  End Site
                  {
                    OFFSET 1.78271 -1.18214 1.43049
                  }
                }
              }
              JOINT lIndex1
              {
                OFFSET 7.75947 0.938293 5.60832
                CHANNELS 3 Zrotation Xrotation Yrotation
                JOINT lIndex2
                {
                  OFFSET 2.54057 -0.884171 1.56538
                  CHANNELS 3 Zrotation Xrotation Yrotation
                  End Site
                  {
                    OFFSET 1.62519 -0.234802 1.16502
                  }
                }
              }
              JOINT lMid1
              {
                OFFSET 8.24714 1.18213 3.41376
                CHANNELS 3 Zrotation Xrotation Yrotation
                JOINT lMid2
                {
                  OFFSET 3.10165 -0.590103 1.0647
                  CHANNELS 3 Zrotation Xrotation Yrotation
                  End Site
                  {
                    OFFSET 2.48547 -0.328903 0.83742
                  }
                }
              }
              JOINT lRing1
              {
                OFFSET 8.82822 0.546677 1.51678
                CHANNELS 3 Zrotation Xrotation Yrotation
                JOINT lRing2
                {
                  OFFSET 2.60934 -0.819778 -0.0198488
                  CHANNELS 3 Zrotation Xrotation Yrotation
                  End Site
                  {
                    OFFSET 2.33842 -0.294052 0.168128
                  }
                }
              }
              JOINT lPinky1
              {
                OFFSET 8.27202 -0.0477905 -0.4584
                CHANNELS 3 Zrotation Xrotation Yrotation
                JOINT lPinky2
                {
                  OFFSET 1.82734 -0.647385 -0.700984
                  CHANNELS 3 Zrotation Xrotation Yrotation
                  End Site
                  {
                    OFFSET 1.69225 -0.51767 -0.607171
                  }
                }
              }
            }
          }
        }
      }
    }
  }
  JOINT rButtock
  {
    OFFSET -8.77824 4.35084 1.2192
    CHANNELS 3 Zrotation Xrotation Yrotation
    JOINT rThigh
    {
      OFFSET 0 -1.70687 -2.19456
      CHANNELS 3 Zrotation Xrotation Yrotation
      JOINT rShin
      {
        OFFSET 0 -36.8199 0.73152
        CHANNELS 3 Zrotation Xrotation Yrotation
        JOINT rFoot
        {
          OFFSET 0.73152 -45.1104 -5.12064
          CHANNELS 3 Zrotation Xrotation Yrotation
          End Site
          {
            OFFSET -1.1221 -3.69964 12.103
          }
        }
      }
    }
  }
  JOINT lButtock
  {
    OFFSET 8.77824 4.35084 1.2192
    CHANNELS 3 Zrotation Xrotation Yrotation
    JOINT lThigh
    {
      OFFSET 0 -1.70687 -2.19456
      CHANNELS 3 Zrotation Xrotation Yrotation
      JOINT lShin
      {
        OFFSET 0 -36.8199 0.73152
        CHANNELS 3 Zrotation Xrotation Yrotation
        JOINT lFoot
        {
          OFFSET -0.73152 -45.1104 -5.12064
          CHANNELS 3 Zrotation Xrotation Yrotation
          End Site
          {
            OFFSET 1.1221 -3.69964 12.103
          }
        }
      }
    }
  }
}
MOTION
Frames:	4
Frame Time:	0.00833333
-152.062 71.7979 -25.9196 -555.687 54.0192 -534.107 11.146 30.6837 -6.44711 -0.839143 -6.06829 -0.506779 -15.6348 -9.47579 -13.0793 33.9702 -2.76855 -18.1053 -0.0 0.0 0.0 -0.0 0.0 0.0 1.54327e-13 6.36107e-14 -2.12998e-13 53.5478 50.9305 24.1514 -18.9442 -11.7392 36.1747 -15.3059 -69.4046 -21.9621 2.8431e-11 8.45786e-10 7.79401e-10 3.55427e-13 1.29494e-09 1.34645e-09 2.84373e-11 8.45781e-10 7.79392e-10 7.73091 5.47488 0.417314 2.84325e-11 8.45785e-10 7.79404e-10 2.90554 0.965183 0.102902 2.84345e-11 8.45787e-10 7.79403e-10 10.2786 0.731801 0.0259123 2.8427e-11 8.4579e-10 7.79414e-10 2.22167 -0.733487 -0.20892 1.54197e-13 6.36107e-14 -2.13147e-13 26.6153 49.4914 -115.813 23.7116 -18.5679 -48.7096 0.00655393 -2.31088 0.324951 4.45443e-10 5.55961e-11 5.79243e-10 7.68735e-10 9.76049e-11 1.00074e-09 4.45446e-10 5.56044e-11 5.79243e-10 -7.73091 5.47488 -0.417314 4.45446e-10 5.55984e-11 5.79243e-10 -2.90554 0.965183 -0.102902 4.4544e-10 5.55989e-11 5.79243e-10 -10.2786 0.731801 -0.0259123 4.45449e-10 5.56037e-11 5.79233e-10 -2.22167 -0.733487 0.20892 -2.03217e-16 0.0 -3.88251e-19 -31.5988 -59.6861 -11.0909 -0.902919 59.5034 1.92536 -2.53164 -13.0206 -9.44021 2.03217e-16 0.0 3.88251e-19 23.7171 -50.9277 29.0676 0.709774 54.1695 -1.41227 2.31563 -11.5258 8.36059
-152.026 71.7465 -26.7052 -555.488 54.5275 -534.198 10.8467 30.9789 -6.29176 -0.855773 -6.06124 -0.472958 -15.6836 -9.68732 -13.0333 33.9256 -2.4891 -18.0218 -0.0 0.0 0.0 -0.0 0.0 0.0 8.42114e-14 1.36922e-13 1.19508e-14 53.2716 51.1221 24.3448 -18.9776 -11.7766 36.2557 -15.3506 -69.4435 -22.0099 -2.29729e-10 8.57307e-10 8.52345e-10 -4.48365e-10 1.32203e-09 1.45628e-09 -2.29723e-10 8.57303e-10 8.52336e-10 7.73091 5.47488 0.417314 -2.29728e-10 8.57306e-10 8.5235e-10 2.90554 0.965183 0.102902 -2.29725e-10 8.57309e-10 8.52348e-10 10.2786 0.731801 0.0259123 -2.29734e-10 8.57312e-10 8.52358e-10 2.22167 -0.733487 -0.20892 8.40483e-14 1.36916e-13 1.17838e-14 26.5801 49.4849 -115.772 23.6941 -18.5362 -48.6576 0.00654926 -2.30759 0.324488 4.69435e-10 1.70609e-10 6.6729e-10 8.09482e-10 2.98456e-10 1.15003e-09 4.6944e-10 1.70618e-10 6.67295e-10 -7.73091 5.47488 -0.417314 4.69437e-10 1.7061e-10 6.6729e-10 -2.90554 0.965183 -0.102902 4.69431e-10 1.7061e-10 6.67291e-10 -10.2786 0.731801 -0.0259123 4.6944e-10 1.70615e-10 6.67282e-10 -2.22167 -0.733487 0.20892 -2.03217e-16 0.0 -3.88251e-19 -31.4986 -59.3326 -10.4384 -0.886048 59.2529 1.91967 -2.44244 -12.9908 -9.24426 2.03217e-16 0.0 3.88251e-19 23.4681 -51.2086 27.875 0.684937 53.5507 -1.3831 2.18468 -10.8066 8.30181
-152.053 71.6564 -27.5309 -555.488 55.058 -534.35 10.5517 31.2409 -6.07385 -0.844869 -6.03401 -0.423089 -15.8048 -9.97948 -13.0251 33.8465 -2.22442 -17.9651 -0.0 0.0 0.0 -0.0 0.0 0.0 -8.00934e-14 1.24398e-13 3.65127e-13 52.8284 51.3139 24.6768 -18.9495 -11.7442 36.1898 -15.4178 -69.5017 -22.0816 -6.22617e-10 7.08759e-10 6.82475e-10 -1.11521e-09 1.08517e-09 1.14124e-09 -6.22611e-10 7.08758e-10 6.82465e-10 7.73091 5.47488 0.417314 -6.22616e-10 7.08759e-10 6.82481e-10 2.90554 0.965183 0.102902 -6.22612e-10 7.08762e-10 6.82477e-10 10.2786 0.731801 0.0259123 -6.22624e-10 7.08764e-10 6.82486e-10 2.22167 -0.733487 -0.20892 -8.03062e-14 1.2438e-13 3.64922e-13 26.5549 49.3978 -115.778 23.6736 -18.4988 -48.5976 0.0064928 -2.29359 0.322518 6.75909e-10 7.47425e-10 5.55466e-10 1.16596e-09 1.29867e-09 9.52767e-10 6.75915e-10 7.47436e-10 5.55479e-10 -7.73091 5.47488 -0.417314 6.7591e-10 7.47424e-10 5.55466e-10 -2.90554 0.965183 -0.102902 6.75903e-10 7.47424e-10 5.55466e-10 -10.2786 0.731801 -0.0259123 6.75912e-10 7.47427e-10 5.55458e-10 -2.22167 -0.733487 0.20892 -2.03217e-16 0.0 -3.88251e-19 -31.4174 -59.0047 -9.82328 -0.869671 58.9853 1.90932 -2.3416 -12.9315 -9.01266 2.03217e-16 0.0 3.88251e-19 23.2835 -51.5197 26.8896 0.680034 53.41 -1.37441 2.0056 -9.87432 8.16116
-152.122 71.5572 -28.4213 -555.635 55.7538 -534.608 10.2538 31.4361 -5.81147 -0.829846 -6.01392 -0.36681 -15.9345 -10.2726 -13.0288 33.7157 -1.9698 -17.9274 -0.0 0.0 0.0 -0.0 0.0 0.0 -2.46838e-13 8.10868e-14 6.86096e-13 52.4543 51.4748 24.945 -18.8924 -11.679 36.0555 -15.485 -69.5595 -22.1534 -9.60195e-10 5.03113e-10 4.53641e-10 -1.6833e-09 7.60509e-10 7.27838e-10 -9.6019e-10 5.03114e-10 4.53631e-10 7.73091 5.47488 0.417314 -9.60195e-10 5.03114e-10 4.53647e-10 2.90554 0.965183 0.102902 -9.60189e-10 5.03117e-10 4.53642e-10 10.2786 0.731801 0.0259123 -9.60204e-10 5.03118e-10 4.53649e-10 2.22167 -0.733487 -0.20892 -2.47092e-13 8.10576e-14 6.85856e-13 26.552 49.2958 -115.855 23.6381 -18.4352 -48.4892 0.00628363 -2.25573 0.31719 8.31117e-10 1.25349e-09 3.86174e-10 1.43401e-09 2.17585e-09 6.5689e-10 8.31123e-10 1.2535e-09 3.86195e-10 -7.73091 5.47488 -0.417314 8.31117e-10 1.25348e-09 3.86174e-10 -2.90554 0.965183 -0.102902 8.31109e-10 1.25348e-09 3.86174e-10 -10.2786 0.731801 -0.0259123 8.31118e-10 1.25349e-09 3.86168e-10 -2.22167 -0.733487 0.20892 -2.03217e-16 0.0 -3.88251e-19 -31.3292 -58.6785 -9.17125 -0.85325 58.6982 1.89499 -2.2525 -12.8832 -8.803 2.03217e-16 0.0 3.88251e-19 23.0596 -51.7697 26.0907 0.686774 53.5729 -1.38025 1.86996 -9.10444 8.07361
